<?xml version="1.0" encoding="UTF-8"?>
<svg id="Layer_1" data-name="Layer 1" xmlns="http://www.w3.org/2000/svg" xmlns:xlink="http://www.w3.org/1999/xlink" viewBox="0 0 512 512">
  <defs>
    <linearGradient id="linear-gradient" x1="34.31" y1="128" x2="477.05" y2="383.62" gradientUnits="userSpaceOnUse">
      <stop offset="0" stop-color="#c49427"/>
      <stop offset=".24" stop-color="#b58013"/>
      <stop offset=".54" stop-color="#fde78b"/>
      <stop offset=".87" stop-color="#b48113"/>
      <stop offset="1" stop-color="#cea63e"/>
    </linearGradient>
  </defs>
  <path id="Ico" d="M479.4,134.41c0-.24-.02-.48-.03-.72,0-.15,0-.3-.02-.45-.01-.15-.03-.29-.05-.43-.01-.11-.03-.22-.05-.33-.02-.16-.04-.32-.07-.49-.03-.18-.08-.36-.12-.54-.02-.09-.04-.18-.06-.27-.02-.06-.03-.13-.04-.19-.02-.07-.04-.14-.06-.21-.05-.16-.11-.32-.16-.48-.08-.23-.15-.45-.24-.67-.02-.04-.03-.08-.05-.12-.03-.07-.06-.13-.09-.19-.03-.07-.06-.14-.1-.21-.09-.19-.17-.39-.26-.57-.06-.13-.14-.24-.21-.37-.06-.12-.13-.23-.2-.34-.07-.11-.12-.22-.19-.33-.15-.24-.32-.46-.49-.69-.05-.07-.1-.14-.15-.21-.02-.03-.04-.05-.06-.08-.19-.24-.39-.46-.59-.69-.07-.08-.13-.16-.2-.23-.06-.06-.12-.12-.17-.18-.03-.03-.07-.06-.1-.09-.11-.11-.22-.21-.34-.31-.1-.09-.19-.18-.29-.27-.13-.12-.28-.22-.41-.33-.08-.07-.17-.13-.26-.2-.11-.08-.21-.17-.33-.24-.15-.11-.31-.2-.47-.3-.18-.11-.35-.23-.54-.34L262.33,1.69s-.07-.03-.1-.05c-.45-.25-.91-.48-1.39-.68-.03-.01-.07-.02-.1-.04-.43-.17-.87-.32-1.32-.45-.13-.04-.26-.07-.39-.1-.37-.09-.74-.16-1.13-.22-.13-.02-.27-.05-.4-.06-.48-.06-.97-.09-1.47-.1-.02,0-.04,0-.06,0-.5,0-.99.04-1.47.1-.13.02-.26.04-.4.06-.38.06-.76.13-1.13.22-.13.03-.25.06-.38.1-.46.13-.91.28-1.34.45-.03.01-.05.02-.08.03-.48.2-.95.43-1.4.69-.03.02-.06.03-.09.05L39,123.33c-.19.11-.38.24-.56.36-.15.09-.3.18-.44.28-.11.08-.22.17-.34.25-.09.07-.17.13-.26.2-.14.11-.27.21-.4.32-.12.1-.22.21-.33.31-.1.09-.19.18-.29.27-.04.04-.07.07-.11.1-.06.06-.11.11-.17.17-.09.09-.17.2-.26.29-.18.2-.37.41-.54.62-.02.03-.05.06-.07.09-.05.06-.09.13-.13.19-.02.03-.04.05-.06.08-.15.2-.3.4-.43.62-.07.11-.14.23-.2.35-.07.11-.13.22-.2.34-.06.12-.14.23-.2.35-.12.23-.22.46-.32.69-.01.03-.03.05-.04.08-.03.07-.07.14-.1.22-.01.03-.03.07-.04.1-.1.26-.19.52-.28.79-.04.12-.08.24-.12.36-.02.08-.04.15-.07.23-.01.05-.02.1-.03.15-.03.13-.06.26-.09.39-.03.14-.07.28-.1.43-.03.17-.05.34-.08.51-.02.11-.03.22-.05.33-.02.14-.04.27-.05.41-.02.18-.02.37-.03.55,0,.21-.03.42-.02.63v243.28s0,.07,0,.11c0,.52.03,1.03.1,1.55,0,.03.01.07.02.1.06.46.16.92.28,1.38.03.13.07.25.1.38.11.37.23.73.37,1.1.05.12.09.25.15.37.19.45.41.89.65,1.32.28.49.6.97.95,1.42.18.24.39.45.59.68.17.19.32.39.5.56.26.26.54.49.82.72.14.12.28.25.43.37.31.24.65.45.98.65.13.08.25.18.38.25l.08.04s.02.01.03.02l210.64,121.61c.09.05.18.09.27.13.11.06.21.12.32.18.21.11.42.2.63.29.18.08.36.15.54.22.16.06.32.13.48.18.15.05.3.08.44.13,0,0,0,0,0,0,.19.06.38.12.57.17.25.06.49.11.74.15.16.03.32.07.49.09.1.01.2.03.3.04.49.06.97.09,1.46.09,0,0,0,0,.01,0,.01,0,.03,0,.04,0,0,0,0,0,0,0,0,0,0,0,0,0s0,0,0,0c0,0,0,0,0,0,.01,0,.03,0,.04,0,0,0,0,0,.01,0,.49,0,.98-.04,1.46-.09.1-.01.2-.03.3-.04.16-.02.32-.06.49-.09.25-.05.5-.09.74-.15.2-.05.39-.11.58-.17.15-.04.3-.08.44-.13.16-.06.32-.12.48-.18.18-.07.37-.15.55-.23.21-.09.42-.18.63-.29.11-.06.21-.12.32-.18.09-.05.19-.08.28-.14l210.64-121.61s.02,0,.03-.01l.08-.05c.14-.08.26-.18.39-.26.33-.21.66-.41.97-.65.15-.11.28-.25.43-.37.28-.23.56-.46.82-.73.17-.17.32-.36.48-.54.21-.23.42-.45.61-.7.32-.41.6-.84.86-1.29.02-.04.05-.07.07-.1.26-.44.47-.9.67-1.36.05-.12.09-.24.14-.35.14-.37.27-.74.38-1.11.03-.12.07-.24.1-.36.12-.46.21-.92.28-1.39,0-.03.01-.06.02-.09.07-.52.1-1.03.1-1.55,0-.04,0-.07,0-.11v-243.27ZM454.09,355.75l-54.01-31.18,54.01-127.79v158.97ZM129.69,301.59L63.43,144.82l168.89-20.99-102.64,177.75ZM256,133.45l106.15,183.83h-212.3l106.15-183.83ZM358.64,342.59l-102.64,135.77-102.64-135.77h205.27ZM279.68,123.84l168.89,20.99-66.26,156.77-102.63-177.75ZM268.66,96.96v-62.39l137.69,79.5-137.69-17.11ZM243.35,96.96l-137.69,17.11L243.35,34.57v62.39ZM57.91,196.78l54.01,127.79-54.01,31.18v-158.98ZM124.58,346.49l83.67,110.67-137.68-79.49,54.01-31.18ZM387.42,346.49l54.01,31.18-137.68,79.49,83.67-110.67Z" style="fill: url(#linear-gradient); stroke-width: 0px;"/>
  <rect width="512" height="512" style="fill: none; stroke-width: 0px;"/>
</svg>