<?xml version="1.0" encoding="UTF-8"?>
<svg id="b" xmlns="http://www.w3.org/2000/svg" viewBox="0 0 512 512">
    <path
        d="M479.27,286.68s3.13-10.95,3.13-30.68c0-17.02-3.13-30.68-3.13-30.68l-50.95-10.26c-4.41-18.62-11.76-36.1-21.53-51.93l28.78-43.3s-5.53-9.95-19.48-23.91c-12.03-12.03-23.91-19.48-23.91-19.48l-43.3,28.78c-15.83-9.77-33.31-17.12-51.93-21.53l-10.26-50.95s-10.95-3.13-30.68-3.13c-17.02,0-30.68,3.13-30.68,3.13l-10.26,50.95c-18.62,4.41-36.1,11.76-51.93,21.53l-43.3-28.78s-9.95,5.53-23.91,19.48c-12.03,12.03-19.48,23.91-19.48,23.91l28.78,43.3c-9.77,15.83-17.12,33.31-21.53,51.93l-50.95,10.26s-3.13,10.95-3.13,30.68c0,17.02,3.13,30.68,3.13,30.68l50.95,10.26c4.41,18.62,11.76,36.1,21.53,51.93l-28.78,43.3s5.53,9.95,19.48,23.91c12.03,12.03,23.91,19.48,23.91,19.48l43.3-28.78c15.83,9.77,33.31,17.12,51.93,21.53l10.26,50.95s10.95,3.13,30.68,3.13c17.02,0,30.68-3.13,30.68-3.13l10.26-50.95c18.62-4.41,36.1-11.76,51.93-21.53l43.3,28.78s9.95-5.53,23.91-19.48c12.03-12.03,19.48-23.91,19.48-23.91l-28.78-43.3c9.77-15.83,17.12-33.31,21.53-51.93l50.95-10.26ZM256,400.95c-80.05,0-144.95-64.89-144.95-144.95S175.95,111.05,256,111.05s144.95,64.89,144.95,144.95-64.89,144.95-144.95,144.95Z"
        fill="currentColor" stroke-width="0" />
    <path
        d="M295.17,274.19l69.88-16.1v-4.18l-69.88-16.1c-11.63-2.68-20.64-11.86-23.1-23.54l-13.98-66.42h-4.2l-13.98,66.42c-2.46,11.67-11.47,20.86-23.1,23.54l-69.88,16.1v4.18l69.88,16.1c11.63,2.68,20.64,11.86,23.1,23.54l13.98,66.42h4.2l13.98-66.42c2.46-11.67,11.47-20.86,23.1-23.54Z"
        fill="currentColor" stroke-width="0" />
    <path
        d="M314.88,225.58l21.63,4.98c-8.39-26.5-29.53-47.38-56.19-55.41l4.44,21.11c12.93,6.25,23.52,16.59,30.12,29.31Z"
        fill="currentColor" stroke-width="0" />
    <path
        d="M284.75,315.73l-4.44,21.11c26.66-8.03,47.8-28.91,56.19-55.41l-21.63,4.98c-6.6,12.73-17.19,23.06-30.12,29.31Z"
        fill="currentColor" stroke-width="0" />
    <path
        d="M231.69,336.84l-4.44-21.11c-12.93-6.25-23.52-16.59-30.12-29.31l-21.63-4.98c8.39,26.5,29.53,47.38,56.19,55.41Z"
        fill="currentColor" stroke-width="0" />
    <path d="M197.12,225.58c6.6-12.73,17.19-23.06,30.12-29.31l4.44-21.11c-26.66,8.03-47.8,28.91-56.19,55.41l21.63-4.98Z"
        fill="currentColor" stroke-width="0" />
    <path
        d="M270.7,129.49l3.97,18.88c45.12,7.8,80.85,43.38,88.87,88.43l18.95,4.37c-6.81-58.44-53.34-104.93-111.8-111.68Z"
        fill="currentColor" stroke-width="0" />
    <path
        d="M237.33,148.37l3.97-18.88c-58.46,6.75-104.99,53.23-111.8,111.68l18.95-4.37c8.02-45.05,43.75-80.63,88.87-88.43Z"
        fill="currentColor" stroke-width="0" />
    <path
        d="M274.67,363.63l-3.97,18.88c58.46-6.75,104.99-53.23,111.8-111.68l-18.95,4.37c-8.02,45.05-43.75,80.63-88.87,88.43Z"
        fill="currentColor" stroke-width="0" />
    <path
        d="M148.46,275.2l-18.95-4.37c6.81,58.44,53.34,104.93,111.8,111.68l-3.97-18.88c-45.12-7.8-80.85-43.38-88.87-88.43Z"
        fill="currentColor" stroke-width="0" />
</svg>