<?xml version="1.0" encoding="UTF-8"?>
<svg id="b" xmlns="http://www.w3.org/2000/svg" viewBox="0 0 512 512">
    <path
        d="M355.93,318.02s91.89-49.96,92.59-161.42l-37.73-8.39,34.24-29.7s-19.22-69.18-85.6-98.53l-13.28,64.99-48.48,30.6v9.8c0,9.72-2.43,13.34-9.96,15.22v-26.61l-31.71-27.96-31.71,27.96v26.61c-7.53-1.88-9.96-5.5-9.96-15.22v-9.8l-48.48-30.6-13.28-64.99c-66.38,29.35-85.6,98.53-85.6,98.53l34.24,29.7-37.73,8.39c.7,111.46,92.59,161.42,92.59,161.42l28.65-72.32,29.7-11.53.11-8.48c.33-10.87,9.76-9.36,9.76-9.36v24.03l15.64,8.84v106.91l-10.84,6.67c-.12,1.61-.17,2.22-.3,3.83l9.39,8.01v77.22l-14.33,16.42,2.8,5.24h10.83l18.52,18.52,18.52-18.52h10.83l2.8-5.24-14.33-16.42v-77.22l9.39-8.01c-.12-1.61-.17-2.22-.3-3.83l-10.84-6.67v-106.91l15.64-8.84v-24.03s9.43-1.51,9.76,9.36l.11,8.48,29.7,11.53,28.65,72.32ZM213.64,197.89l-27.76,11.41c-.68-.77-.67-.76-1.34-1.54l15.55-26.99-15.3-32.08c-.57-1.19.73-2.41,1.88-1.76l26.97,15.05v35.91ZM298.36,197.89v-35.91l26.97-15.05c1.15-.64,2.45.57,1.88,1.76l-15.3,32.08,15.55,26.99c-.68.77-.67.76-1.34,1.54l-27.76-11.41Z"
        fill="currentColor" stroke-width="0" />
    <path
        d="M408.43,319.03c-15.97,19.53-70.24,88.38-85.51,107.77,1.17,1.88,1.18,1.91,2.35,3.79l37.29-7.76.7,34.24,59.4-71.63-40.88,10.48,28.68-75.73c-1.16-.68-.86-.5-2.03-1.18Z"
        fill="currentColor" stroke-width="0" />
    <path
        d="M101.54,320.21l28.68,75.73-40.88-10.48,59.4,71.63.7-34.24,37.29,7.76,2.35-3.79c-15.28-19.4-69.54-88.24-85.51-107.77-1.16.68-.86.5-2.03,1.18Z"
        fill="currentColor" stroke-width="0" />
</svg>