<?xml version="1.0" encoding="UTF-8"?>
<svg id="b" xmlns="http://www.w3.org/2000/svg" viewBox="0 0 512 512">
    <path
        d="M448.5,250.8c0-29.01-14.83-69.29-26.92-100.52,9.54,3.29,19.09,6.97,28.55,11.15l-9.35-22.43c-9.15-3.87-18.37-7.28-27.54-10.3-1.79-4.72-3.33-8.98-4.51-12.58-4.66-14.31,8.49-32.77,24.55-34.4v-23.57s-73.03-6.43-66.55,58.17c-61.08-12.69-110.74-10.18-110.74-10.18,0,0-49.65-2.52-110.72,10.17,6.48-64.59-66.55-58.16-66.55-58.16v23.57c16.06,1.63,29.21,20.09,24.55,34.4-1.17,3.6-2.72,7.85-4.51,12.57-9.19,3.03-18.41,6.43-27.57,10.31l-9.35,22.43c9.46-4.18,19.03-7.86,28.57-11.16-12.09,31.23-26.92,71.51-26.92,100.53,0,109.87,77.91,199.67,186.6,203.07v.12h4.27s0,.01,0,.01c.39,0,.77.03,1.16.03.16,0,.32-.01.48-.01.16,0,.32.01.48.01.39,0,.77-.03,1.16-.03,0,0,0-.01,0-.01h4.27v-.12c108.69-3.4,186.6-93.2,186.6-203.07ZM327.11,255.62l1.58-.36v113.55c-8.6,4.99-17.82,9.07-27.5,12.2v-114.99c7.94-4.69,16.64-8.26,25.92-10.4ZM328.69,250.27l-1.58-.36c-9.28-2.14-17.98-5.71-25.92-10.4v-113.42c8.35.66,17.59,1.59,27.5,2.88v121.29ZM184.89,249.91l-1.58.36v-121.3c9.91-1.29,19.15-2.22,27.5-2.88v113.42c-7.94,4.69-16.64,8.26-25.92,10.4ZM183.31,255.25l1.58.36c9.28,2.14,17.98,5.71,25.92,10.4v114.99c-9.67-3.14-18.9-7.22-27.5-12.2v-113.55ZM267.75,300.29c5.55-9.96,12.92-18.76,21.65-25.98v109.99c-8.87,2.07-18.06,3.35-27.5,3.74v-64.18c0-8.22,1.85-16.39,5.85-23.57ZM372.88,143.26c11.71,31.55,23.88,75.11,23.88,107.62,0,46.01-22.13,85.57-56.29,110.26v-230.5c9.64,1.47,19.78,3.31,30.22,5.56.66,2.3,1.36,4.63,2.19,7.07ZM289.4,125.29v105.93c-8.6-7.12-15.87-15.76-21.4-25.54-4.21-7.45-6.1-15.98-6.1-24.53v-56.65c5.66-.03,15.17.08,27.5.79ZM250.1,124.5v56.65c0,8.55-1.9,17.08-6.1,24.53-5.52,9.78-12.8,18.42-21.4,25.54v-105.93c12.34-.7,21.84-.81,27.5-.79ZM115.24,250.88c0-32.51,12.17-76.07,23.88-107.62.83-2.44,1.52-4.77,2.19-7.07,10.45-2.25,20.59-4.08,30.22-5.55v230.51c-34.16-24.68-56.29-64.24-56.29-110.26ZM222.6,384.3v-109.99c8.73,7.22,16.09,16.02,21.65,25.98,4,7.18,5.85,15.36,5.85,23.57v64.18c-9.44-.4-18.63-1.67-27.5-3.74Z"
        fill="currentColor" stroke-width="0" />
    <path
        d="M464.65,250.11l-2.31.48c5.11,44.81-2.19,87.34-21.7,123.78-23.06,43.08-62.53,67.21-81.17,76.71l.89,2.22c135.97-34.73,115.74-159.9,104.29-203.2Z"
        fill="currentColor" stroke-width="0" />
    <path
        d="M71.36,374.38c-19.51-36.45-26.82-78.98-21.7-123.78-1.45-.3-.86-.18-2.31-.48-11.45,43.3-31.68,168.47,104.29,203.2l.89-2.22c-18.64-9.51-58.11-33.64-81.17-76.71Z"
        fill="currentColor" stroke-width="0" />
</svg>