<?xml version="1.0" encoding="UTF-8"?>
<svg id="b" xmlns="http://www.w3.org/2000/svg" viewBox="0 0 512 512">
    <path
        d="M301.67,402.03l-1.68-3.28c-17.53,5.56-34.33,7.11-48.47,6.89-12.01-.53-25.49-2.45-39.5-6.89l-1.68,3.28s44.3,30.14,44.3,96.97h3.06c0-66.83,43.98-96.97,43.98-96.97Z"
        fill="currentColor" stroke-width="0" />
    <path
        d="M110.24,301.81l3.28-1.68c-5.56-17.53-7.11-34.33-6.89-48.47.53-12.01,2.45-25.49,6.89-39.5l-3.28-1.68s-30.14,44.3-96.97,44.3v3.06c66.83,0,96.97,43.98,96.97,43.98Z"
        fill="currentColor" stroke-width="0" />
    <path
        d="M401.76,210.47l-3.28,1.68c5.56,17.53,7.11,34.33,6.89,48.47-.53,12.01-2.45,25.49-6.89,39.5l3.28,1.68s30.14-44.3,96.97-44.3v-3.06c-66.83,0-96.97-43.98-96.97-43.98Z"
        fill="currentColor" stroke-width="0" />
    <polygon points="202.62 168.71 202.62 203.86 170.07 203.86 64.62 78.23 202.62 168.71" fill="currentColor"
        stroke-width="0" />
    <polygon points="167.47 308.66 202.62 308.66 202.62 341.2 76.98 446.66 167.47 308.66" fill="currentColor"
        stroke-width="0" />
    <path
        d="M374.59,219.16l-15.13,7.93h-74.41v-74.41l7.93-15.13s-10.86-3.66-36.98-3.66c-21.73,0-36.98,3.66-36.98,3.66l7.93,15.13v74.41h-74.41l-15.13-7.93s-3.66,10.86-3.66,36.98c0,21.73,3.66,36.98,3.66,36.98l15.13-7.93h74.41v74.41l-7.93,15.13s10.86,3.66,36.98,3.66c21.73,0,36.98-3.66,36.98-3.66l-7.93-15.13v-74.41h74.41l15.13,7.93s3.66-10.86,3.66-36.98c0-21.73-3.66-36.98-3.66-36.98Z"
        fill="currentColor" stroke-width="0" />
    <polygon points="309.25 168.71 309.25 203.86 341.8 203.86 447.26 78.23 309.25 168.71" fill="currentColor"
        stroke-width="0" />
    <polygon points="344.4 308.66 309.25 308.66 309.25 341.2 434.89 446.66 344.4 308.66" fill="currentColor"
        stroke-width="0" />
    <path
        d="M210.33,109.97l1.68,3.28c17.53-5.56,34.33-7.11,48.47-6.89,12.01.53,25.49,2.45,39.5,6.89l1.68-3.28s-44.3-30.14-44.3-96.97h-3.06c0,66.83-43.98,96.97-43.98,96.97Z"
        fill="currentColor" stroke-width="0" />
</svg>