<?xml version="1.0" encoding="UTF-8"?>
<svg id="b" xmlns="http://www.w3.org/2000/svg" viewBox="0 0 512 512">
    <path
        d="M199.89,226.72c-9.83,25.95-40.13,126.62,41.99,211.67l11.64,55.87c2.77,0,2.19,0,4.96,0l11.64-55.87c82.12-85.05,51.82-185.72,41.99-211.67,1.27-.65.95-.48,2.21-1.13,95.4,107.24-21.91,212.8-21.91,212.8,129.32-67.08,150.13-153.78,150.13-153.78h-44.59c26.01-46.87,16.62-130.51,16.62-130.51l-60.39,2.32-10.53,15.36c-26.76-65.69-87.65-154.06-87.65-154.06,0,0-60.89,88.37-87.65,154.06l-10.53-15.36-60.39-2.32s-9.39,83.64,16.62,130.51h-44.59s20.81,86.7,150.13,153.78c0,0-117.31-105.56-21.91-212.8,1.27.65.95.48,2.21,1.13ZM241.88,216.88s9.28-41.06,12.87-77.43h2.5c3.59,36.37,12.87,77.43,12.87,77.43,26.76,108.31-14.12,197.06-14.12,197.06,0,0-40.88-88.75-14.12-197.06Z"
        fill="currentColor" stroke-width="0" />
    <path
        d="M112.37,128.84s10.03-52.37,74.27-92.65c2.67,2.85,2.13,2.27,4.81,5.11-12.33,16.86-31.45,47.81-42.85,89.98l-36.23-2.45Z"
        fill="currentColor" stroke-width="0" />
    <path d="M207.02,452.85s-56.92,5.35-98.31-31.14c0,0-25.35-20.43-25.87-74.44,0,0,21.73,70.3,124.19,105.57Z"
        fill="currentColor" stroke-width="0" />
    <path
        d="M325.36,36.18c64.24,40.28,74.27,92.65,74.27,92.65l-36.23,2.45c-11.39-42.17-30.51-73.12-42.85-89.98,2.67-2.85,2.13-2.27,4.81-5.11Z"
        fill="currentColor" stroke-width="0" />
    <path
        d="M429.17,347.28c-.52,54-25.87,74.44-25.87,74.44-41.4,36.49-98.31,31.14-98.31,31.14,102.45-35.27,124.19-105.57,124.19-105.57Z"
        fill="currentColor" stroke-width="0" />
</svg>