<?xml version="1.0" encoding="UTF-8"?>
<svg id="b" xmlns="http://www.w3.org/2000/svg" viewBox="0 0 512 512">
    <path
        d="M67.69,216.38c-4.68,16.74-7.24,34.36-7.24,52.58,0,39.32,11.71,75.94,31.78,106.63l19.85-19.85,16.3-16.3c-11.6-20.9-18.23-44.93-18.23-70.48,0-3.28.15-6.53.36-9.77l-.34-.34-42.48-42.48Z"
        fill="currentColor" stroke-width="0" />
    <path
        d="M245.57,123.62c3.41-.24,6.85-.41,10.32-.41s6.68.16,9.99.38l42.78-42.78c-16.8-4.72-34.48-7.3-52.77-7.3s-36.17,2.61-53.05,7.38l42.7,42.7.03.03Z"
        fill="currentColor" stroke-width="0" />
    <path d="M174.18,268.96c0,7.45,1.08,14.62,2.95,21.48l21.6-21.6-21.55-21.55c-1.9,6.91-3,14.16-3,21.67Z"
        fill="currentColor" stroke-width="0" />
    <path d="M277.37,190.19c-6.85-1.87-14.03-2.95-21.48-2.95s-15.09,1.14-22.14,3.12l21.73,21.73,21.9-21.9Z"
        fill="currentColor" stroke-width="0" />
    <path
        d="M321.71,278.32l12.78,12.78c1.98-7.05,3.12-14.46,3.12-22.14s-1.12-14.97-3.07-21.97l-22.08,22.08,9.22,9.22.03.03Z"
        fill="currentColor" stroke-width="0" />
    <path d="M233.93,347.6c7,1.95,14.35,3.07,21.97,3.07s14.76-1.1,21.67-3l-21.86-21.86-21.78,21.78Z" fill="currentColor"
        stroke-width="0" />
    <path
        d="M328.67,397.79l-1.66-1.66c-21.05,11.82-45.3,18.59-71.11,18.59s-49.71-6.67-70.66-18.33l-20.54,20.54-15.6,15.6c30.72,20.13,67.41,31.89,106.8,31.89s76.42-11.86,107.24-32.16l-34.18-34.18-.28-.28Z"
        fill="currentColor" stroke-width="0" />
    <path
        d="M414.47,370.12l5.24,5.24c19.97-30.64,31.63-67.18,31.63-106.4,0-18.32-2.59-36.04-7.32-52.86l-42.76,42.76c.23,3.34.39,6.7.39,10.1,0,25.45-6.58,49.39-18.09,70.24l30.61,30.61.31.31Z"
        fill="currentColor" stroke-width="0" />
    <path
        d="M470.44,54.42c-14.62-14.62-27.44-1.22-27.44-1.22,0,0,8.21,3.79,16.54,12.12,8.04,8.04,12.12,16.54,12.12,16.54,0,0,13.4-12.81-1.22-27.44Z"
        fill="currentColor" stroke-width="0" />
    <path
        d="M464.14,173.95l-33.67,2.91c-5.55-11.79-14.24-23.45-21.6-32.22l56.78-56.78s-3.79-8.21-12.12-16.54c-6.58-6.58-16.54-12.12-16.54-12.12l-56.78,56.78c-8.77-7.36-20.44-16.05-32.22-21.6l2.91-33.67-6.41.12-64.18,64.18s26.15,2.27,56.83,21.92l-236.13,236.13-15.73,56.5,56.5-15.73,236.13-236.13c18.58,28.46,21.73,56.2,21.73,56.2l64.37-63.54.12-6.41ZM274.6,254.45l-5.77,1.57,1.57-5.77,86.33-86.33,4.19,4.19-86.33,86.33Z"
        fill="currentColor" stroke-width="0" />
    <path
        d="M69,53.2s-12.81-13.4-27.44,1.22c-14.62,14.62-1.22,27.44-1.22,27.44,0,0,4.08-8.5,12.12-16.54,8.33-8.33,16.54-12.12,16.54-12.12Z"
        fill="currentColor" stroke-width="0" />
    <path
        d="M225.38,242.43l-74.31-74.31,4.19-4.19,74.31,74.31,18.29-18.29-73.02-73.02c30.68-19.66,56.83-21.92,56.83-21.92l-64.18-64.18-6.41-.12,2.91,33.67c-11.79,5.55-23.45,14.24-32.22,21.6l-56.78-56.78s-9.96,5.53-16.54,12.12c-8.33,8.33-12.12,16.54-12.12,16.54l56.78,56.78c-7.36,8.77-16.05,20.44-21.6,32.22l-33.67-2.91.12,6.41,64.37,63.54s3.15-27.74,21.74-56.2l73.02,73.02.21-.21,18.08-18.08Z"
        fill="currentColor" stroke-width="0" />
    <polygon
        points="426.71 439.56 410.98 383.06 304.67 276.75 270.49 310.92 270.18 311.23 263.89 317.52 370.21 423.84 426.71 439.56"
        fill="currentColor" stroke-width="0" />
</svg>