<?xml version="1.0" encoding="UTF-8"?>
<svg id="b" xmlns="http://www.w3.org/2000/svg" viewBox="0 0 512 512">
    <path d="M256.67,22.27s-13.82-4.56-26.43-4.56c-11.16,0-26.19,4.56-26.19,4.56v90.01h52.62V22.27Z" fill="currentColor"
        stroke-width="0" />
    <path d="M193.56,44.45l-48.76,18.47c-2.28.86-3.77,2.93-3.77,5.22v44.14h52.53V44.45Z" fill="currentColor"
        stroke-width="0" />
    <path d="M317.91,144.52V49.06c0-2.48-1.74-4.67-4.29-5.39l-46.47-13.2v127.66l44.62-6.86c3.54-.55,6.14-3.4,6.14-6.74Z"
        fill="currentColor" stroke-width="0" />
    <path
        d="M379.15,141.93v-46.51c0-2.29-1.49-4.36-3.77-5.22l-46.98-17.8v85.72l45.04-9.53c3.34-.71,5.71-3.47,5.71-6.66Z"
        fill="currentColor" stroke-width="0" />
    <path
        d="M341.98,292.4c16.78-13.88,27.34-33.13,29.59-53.93l5.8-70.08h-116.88l21.49,56.11-34.96-40.01h-56.17l-17.47-10.83h53.78c16.29,0,29.5-12.29,29.5-27.46v-23.18h-114.32c-11.3,13.37-13.48,19.09-24.79,32.46l20.76,90.22c4.29,16.52,13.9,31.42,27.54,42.7l2.98,2.46,48.88,149.7,14.54-93.27,24.41,146.99,24.52-147.59,15.04,93.88,45.76-148.17h0ZM264.12,277.32l-7.46,62.96-7.46-62.96-49.32,9.44,56.77-27.58,56.77,27.58-49.32-9.44Z"
        fill="currentColor" stroke-width="0" />
    <path
        d="M343.12,378.78c-16.49,16.49-16.49,43.23,0,59.73,16.49,16.49,43.23,16.49,59.73,0,16.49-16.49,16.49-43.23,0-59.73-16.49-16.49-43.23-16.49-59.73,0ZM402.6,422.48c-2.19,4.21-5.38,7.87-9.33,10.23,2.34-3.95,4.21-7.82,5.43-11.85,1.23-4.01,1.84-8.11,1.84-12.22,0-.74-.03-1.48-.07-2.22-.14.11-.29.21-.45.3-3.6,2.08-9.44-1.31-13.05-7.56-3.61-6.25-3.62-13.01-.02-15.09,1.76-1.02,4.05-.72,6.36.57-.01-.02-.03-.05-.04-.07,3.96,2.35,7.15,6.02,9.34,10.23,2.18,4.22,3.33,9.03,3.32,13.84,0,4.81-1.15,9.61-3.33,13.83Z"
        fill="currentColor" stroke-width="0" />
    <path
        d="M408.07,285.09c-20.73,0-37.54,16.81-37.54,37.54s16.81,37.54,37.54,37.54,37.54-16.81,37.54-37.54-16.81-37.54-37.54-37.54ZM425.3,346.69c2.34-3.95,4.21-7.82,5.43-11.85,1.23-4.01,1.84-8.11,1.84-12.22,0-.84-.03-1.68-.09-2.52-.2.17-.41.32-.64.45-3.6,2.08-9.44-1.31-13.05-7.56-3.61-6.25-3.62-13.01-.02-15.09,1.81-1.04,4.18-.71,6.55.67,0,0,0-.01-.01-.02,3.96,2.35,7.15,6.02,9.34,10.23,2.18,4.22,3.33,9.03,3.32,13.84,0,4.81-1.15,9.61-3.33,13.83-2.19,4.21-5.38,7.87-9.33,10.23Z"
        fill="currentColor" stroke-width="0" />
    <path
        d="M411.22,265.99c12.09-12.09,12.09-31.7,0-43.8-7.07-7.07-16.7-10-25.9-8.8l-3.75,37.25c-.75,7.48-2.47,14.74-5.07,21.64,11.41,5.19,25.33,3.09,34.72-6.3ZM396.45,223.37c1.47-1.12,3.81-.72,6.07.8,2.99,1.79,5.54,4.4,7.43,7.48,2.24,3.67,3.5,8.04,3.49,12.44,0,4.4-1.25,8.77-3.49,12.44-2.25,3.66-5.43,6.66-9.17,8.42,1.11-1.75,2.17-3.41,3.07-5.12.91-1.7,1.68-3.41,2.3-5.15,1.25-3.47,1.9-7.02,1.9-10.58,0-2.28-.28-4.56-.8-6.82-.05.04-.09.09-.14.13-2.23,1.69-6.42-.07-9.37-3.95-2.94-3.87-3.52-8.39-1.29-10.08Z"
        fill="currentColor" stroke-width="0" />
    <path
        d="M132.77,273.37c-2.12-4.75-3.81-9.7-5.05-14.83l-10.84-44.87c-5.9,1.12-11.53,3.96-16.1,8.52-12.09,12.09-12.09,31.7,0,43.8,8.65,8.65,21.15,11.11,31.99,7.38ZM102.05,231.65c1.87-3.05,4.4-5.64,7.35-7.43,2.28-1.56,4.65-1.98,6.14-.85,2.23,1.69,1.65,6.21-1.29,10.08-2.94,3.87-7.14,5.64-9.36,3.95-.05-.04-.09-.08-.13-.12-.52,2.25-.79,4.53-.8,6.81,0,3.56.64,7.11,1.9,10.58.62,1.74,1.4,3.45,2.3,5.15.9,1.71,1.95,3.38,3.07,5.12-3.74-1.76-6.92-4.76-9.17-8.42-2.24-3.67-3.5-8.04-3.49-12.44,0-4.4,1.24-8.77,3.49-12.44Z"
        fill="currentColor" stroke-width="0" />
    <path
        d="M109.15,378.78c-16.49,16.49-16.49,43.23,0,59.73,16.49,16.49,43.23,16.49,59.73,0,16.49-16.49,16.49-43.23,0-59.73-16.49-16.49-43.23-16.49-59.73,0ZM124.88,399.17c-3.61,6.25-9.46,9.64-13.05,7.56-.1-.06-.2-.12-.29-.19-.04.7-.06,1.4-.06,2.1,0,4.1.61,8.21,1.84,12.22,1.21,4.03,3.08,7.9,5.43,11.85-3.96-2.36-7.15-6.02-9.33-10.23-2.18-4.22-3.33-9.03-3.33-13.83,0-4.81,1.14-9.61,3.32-13.84,1.55-2.99,3.61-5.7,6.09-7.86,3.2-3.07,6.87-4.33,9.41-2.86,3.6,2.08,3.59,8.83-.02,15.09Z"
        fill="currentColor" stroke-width="0" />
    <path
        d="M141.46,322.63c0-20.73-16.81-37.54-37.54-37.54s-37.54,16.81-37.54,37.54,16.81,37.54,37.54,37.54,37.54-16.81,37.54-37.54ZM93.05,313c-3.61,6.25-9.46,9.64-13.05,7.56-.17-.1-.34-.21-.49-.33-.05.8-.08,1.6-.08,2.4,0,4.1.61,8.21,1.84,12.22,1.21,4.03,3.08,7.9,5.43,11.85-3.96-2.36-7.15-6.02-9.33-10.23-2.18-4.22-3.33-9.03-3.33-13.83,0-4.81,1.14-9.61,3.32-13.84,1.67-3.21,3.92-6.1,6.64-8.33,3.12-2.84,6.62-3.96,9.07-2.55,3.6,2.08,3.59,8.83-.02,15.09Z"
        fill="currentColor" stroke-width="0" />
</svg>