<?xml version="1.0" encoding="UTF-8"?>
<svg id="b" xmlns="http://www.w3.org/2000/svg" viewBox="0 0 512 512">
    <path
        d="M503.31,28.87l-117.25,195.86,7.89-29.77s-20.84-46.15-87.83-100.23l-12.41-1.98v111.65l-11.91-10.42v-107.68l9.43-3.97-35.23-21.83-35.23,21.83,9.43,3.97v107.68l-11.91,10.42v-111.65l-12.41,1.98c-66.99,54.09-87.83,100.23-87.83,100.23l7.89,29.77L8.69,28.87c-.99,19.9-1.66,46.66-.48,74.54l59.88,80.88-1.75,1.41L9.16,122.14c1.45,20.48,4.06,38.91,8.45,57.04l53.97,49.69-1.43,1.74-47.97-33.12c5.5,17.36,13.02,32.79,22.58,49.86,2.15,3.18,3.5,5.01,3.5,5.01l43.14,25.68c-.62,1.24-.38.77-.99,2.01l-34.37-11.8c15.99,23.45,38.31,46.61,63.02,66.65v39.47c0,6.57-1.69,13.03-4.92,18.76l-8.48,15.08,122.56,74.93,5.95-200.35h-54.58c-26.3-18.36-28.78-44.66-28.78-44.66h76.42c-3.11-5.09-1.9-11.7,2.8-15.36l2.16-1.68,23.82,39.53,23.82-39.53,2.16,1.68c4.71,3.66,5.91,10.27,2.8,15.36h76.42s-2.48,26.3-28.78,44.66h-54.58l5.95,200.35,122.56-74.93-8.48-15.08c-3.22-5.73-4.92-12.19-4.92-18.76v-39.47c24.71-20.04,47.03-43.2,63.02-66.65l-34.37,11.8c-.62-1.24-.38-.77-.99-2.01l43.14-25.68s1.34-1.83,3.5-5.01c9.56-17.07,17.08-32.5,22.58-49.86l-47.97,33.12-1.43-1.74,53.97-49.69c4.38-18.13,6.99-36.56,8.45-57.04l-57.18,63.55c-1.12-.9-.63-.51-1.75-1.41l59.88-80.88c1.19-27.88.51-54.64-.48-74.54Z"
        fill="currentColor" stroke-width="0" />
</svg>