<?xml version="1.0" encoding="UTF-8"?>
<svg id="b" xmlns="http://www.w3.org/2000/svg" viewBox="0 0 512 512">
    <path
        d="M278.06,130.69c.16-2.39,2.75-3.72,4.68-2.4l19.83,13.44c1.14-.96,1.08-.91,2.22-1.87l-48.11-116.83v-1.57l-.3.79-.3-.79v1.57l-48.11,116.83c1.14.96,1.08.91,2.22,1.87l19.83-13.44c1.94-1.31,4.52.01,4.68,2.4l16.49,315.3-28.26,39.77c1.85,2.49,1.69,2.29,3.54,4.78l29.92-12.06,29.91,12.06c1.85-2.49,1.7-2.29,3.54-4.78l-28.26-39.77,16.49-315.3Z"
        fill="currentColor" stroke-width="0" />
    <path
        d="M294.17,162.45c-1.02.18-.9.16-1.93.33l-7.66,84.11c21.19,3.93,38.34,11.47,52.24,21.03l-55.51,158.59,5.5,2.42,68.72-145.12c32.59,33.78,39.09,78.55,40.81,90.58l-114.99,79.32,6.72,8.87,188.91-124.14-.7-7.63-52-32.1c-7.66-21.04-22.62-44.29-45.61-63.79l20.35-42.97c.81-1.65,3.04-1.79,4.04-.25l10.19,15.78c1.09-.33,1.04-.31,2.13-.64l-.12-98.25.46-1.12-.44.46v-.65s-.44,1.12-.44,1.12l-68.39,68.13c.53,1.04.5.99,1.03,2.03l18.05-3.36c1.76-.33,3.21,1.43,2.63,3.18l-13.77,39.34c-12.99-7.63-27.73-14.06-44.32-18.7h0s-15.91-36.56-15.91-36.56Z"
        fill="currentColor" stroke-width="0" />
    <path
        d="M230.94,453.92l-115.29-79.54c1.71-12.03,8.22-56.81,40.81-90.58l68.72,145.12,5.5-2.42-55.51-158.59c13.9-9.55,31.05-17.1,52.24-21.03h0s0,0,0,0l-7.66-84.11c-1.02-.18-.9-.16-1.93-.33l-15.91,36.56h0c-16.59,4.64-31.33,11.08-44.32,18.7l-13.77-39.34c-.58-1.75.87-3.51,2.63-3.18l18.05,3.36c.53-1.04.5-.99,1.03-2.03l-68.39-68.13-.46-1.12v.65s-.43-.46-.43-.46l.46,1.12-.12,98.25c1.09.33,1.04.31,2.12.64l10.19-15.78c.99-1.54,3.22-1.4,4.04.25l20.35,42.97c-22.99,19.5-37.95,42.75-45.61,63.79l-52,32.1-.7,7.63,189.23,124.35,6.72-8.86Z"
        fill="currentColor" stroke-width="0" />
</svg>