<?xml version="1.0" encoding="UTF-8"?>
<svg id="b" xmlns="http://www.w3.org/2000/svg" viewBox="0 0 512 512">
    <path d="M256,107.26h.05l40.94-39.16s-6.68-27.6-40.94-44.1h-.1c-34.25,16.51-40.94,44.1-40.94,44.1l40.94,39.16h.05Z"
        fill="currentColor" stroke-width="0" />
    <path
        d="M479.73,314.73c-15.51,20.57-42.11.08-42.11.08l-18.03-12.9s-.03-.05-.02-.07l5.66-17.97c3.51-11.13,8.75-21.63,15.54-31.12l5.9-8.24s.03-.03.05-.03l15.91-.52s.04.01.05-.01c.22-.52,7.71-18.29-10.19-31.09l-.05-.04c-17.75-12.7-32.29.02-32.72.39-.02.02,0,.02,0,.05l4.65,15.23s0,.04,0,.06l-5.9,8.24c-6.79,9.49-15.04,17.84-24.43,24.75l-15.18,11.16s-.05.02-.08,0l-6.16-4.41s-.03-.04-.03-.07c19.08-80.21-46.94-98.79-88.57-102.69-.03,0-.06-.03-.06-.06l-4.76-64.47c0-.06-.07-.08-.11-.04l-23.03,22.55s-.07.02-.09,0l-23.03-22.55s-.11-.01-.11.04l-4.76,64.47s-.03.06-.06.06c-41.64,3.89-107.66,22.47-88.57,102.69,0,.03,0,.05-.03.07l-6.16,4.41s-.05.02-.08,0l-15.18-11.16c-9.4-6.91-17.65-15.26-24.43-24.75l-5.9-8.24s-.02-.04,0-.06l4.65-15.23s.02-.03,0-.05c-.42-.38-14.96-13.1-32.72-.39l-.05.04c-17.9,12.81-10.41,30.58-10.19,31.09.01.02.02.01.05.01l15.91.52s.04.01.05.03l5.9,8.24c6.79,9.49,12.03,19.99,15.54,31.12l5.66,17.97s0,.06-.02.07l-18.03,12.9s-26.6,20.49-42.11-.08l-2.43,2.54s16,58.01,63.49,24.02l76.88-55.01s26.03-20.03,41.61-.54c0,0,.01.02.01.03l38.1,174.29-3.83,3.83-70.38-169.32s-.06-.05-.1-.03l-30.1,21.02s-.04.06-.02.09l53.4,91.85c.04.07-.05.14-.11.08l-69.7-80.18s-.06-.03-.09,0l-29.61,21.7s-.04.07,0,.1l156.55,138.81h.1l156.55-138.81s.03-.08,0-.1l-29.61-21.7s-.07-.02-.09,0l-69.7,80.18c-.05.06-.15,0-.11-.08l53.4-91.85s0-.07-.02-.09l-30.1-21.02s-.08-.01-.1.03l-70.38,169.32-3.83-3.83,38.1-174.29s0-.02.01-.03c15.58-19.49,41.61.54,41.61.54l76.88,55.01c47.49,33.98,63.49-24.02,63.49-24.02l-2.43-2.54ZM360.74,259.8c-30.56-21.86-48.06-5.65-56.67,8.69-.04.06-.12.02-.11-.05l10.31-47.17s.02-.06-.01-.07c-.87-.3-23.39-7.99-45.67-5.16-.03,0-.06.03-.06.06l-12.46,136.11c0,.08-.12.08-.13,0l-12.46-136.11s-.03-.06-.06-.06c-22.29-2.83-44.8,4.86-45.67,5.16-.03.01-.02.03-.01.07l10.31,47.17c.02.07-.07.11-.11.05-8.61-14.35-26.12-30.56-56.67-8.69l-2.73,1.95c.73-20.51,14.21-58.35,104.03-58.35h6.88c89.94,0,103.36,37.86,104.05,58.37l-2.75-1.97Z"
        fill="currentColor" stroke-width="0" />
</svg>