<?xml version="1.0" encoding="UTF-8"?>
<svg id="b" xmlns="http://www.w3.org/2000/svg" viewBox="0 0 512 512">
    <path
        d="M401.16,219.53c53.09,90.14,12.89,153,12.89,153,2.16-88.05-53.1-116.15-53.1-116.15h0c11.91,16.08,19.02,36.24,19.02,58.15,0,52.51-40.74,95.08-90.98,95.08s-89.69-42.58-90.98-95.08c-.54-22.01,11.36-58.54,45.09-92.94,22.12-22.57,38.05-46.47,45.87-62.39,31.18-63.49,8.41-136.06-13.74-149.01,0,0,30.81,70.6-16.98,130.69-23.55,29.61-56.13,53.62-83.26,78.55-6.88,5.98-29.96,32.69-38.51,46.92-12.87,21.43-19.45,46.08-19.45,72.11,0,90.21,75.5,163.34,168.62,163.34s171.15-74.18,171.15-164.39c0-46.9-24.89-96.56-55.63-117.89Z"
        fill="currentColor" stroke-width="0" />
    <path
        d="M305.48,297.78l-17.49-80.5-17.49,80.5c-.85,3.9-3.95,6.97-7.96,7.86l-85.46,19.07,85.46,19.07c4.01.89,7.12,3.96,7.96,7.86l17.49,80.5,17.49-80.5c.85-3.9,3.95-6.97,7.96-7.86l85.46-19.07-85.46-19.07c-4.01-.89-7.12-3.96-7.96-7.86Z"
        fill="currentColor" stroke-width="0" />
    <path
        d="M367.73,177.52l-6.89-31.7-6.89,31.7c-.89,4.11-4.16,7.34-8.38,8.28l-33.78,7.54,33.78,7.54c4.22.94,7.49,4.17,8.38,8.28l6.89,31.7,6.89-31.7c.89-4.11,4.16-7.34,8.38-8.28l33.78-7.54-33.78-7.54c-4.22-.94-7.49-4.17-8.38-8.28Z"
        fill="currentColor" stroke-width="0" />
    <path
        d="M205.21,115.73c2.43,9.56-.85,20.21-9.06,32.1-23.48,34-68.36,76.68-92.65,124.73-36.79,72.78-11,147.14,14.49,177.53,0,0-97.99-63.94-49.12-173.43,10.41-23.32,31.95-50.95,73.31-86.78,14.22-12.32,31.8-27.56,46.44-43.91,8.79-9.81,14.7-19.68,16.59-30.24Z"
        fill="currentColor" stroke-width="0" />
</svg>