<?xml version="1.0" encoding="UTF-8"?>
<svg id="b" xmlns="http://www.w3.org/2000/svg" viewBox="0 0 512 512">
    <path
        d="M111.98,208.98h-.03c6.51-45.2,30.77-77.76,40.01-88.77l-1.47-1.83c-35.01,17.02-58.28,58.64-58.28,58.64,3.93-40.8,32.18-76.12,46.03-91.2l-1.53-1.81c-49.82,30.85-82.57,82.33-85.78,147.95l58.32-7.36c.65-5.3,1.56-10.51,2.74-15.63Z"
        fill="currentColor" stroke-width="0" />
    <path
        d="M197.06,368.28s32.74,91.38,44.53,143.11l2.37-1.28c3.85-2.07,6.43-5.9,6.91-10.24l5.13-46.31,5.13,46.31c.48,4.34,3.06,8.17,6.91,10.24l2.37,1.28c11.79-51.73,44.53-143.11,44.53-143.11,30.78-78.94,81.23-86.91,81.23-86.91l103.03-27.33c-2.83-4.86-7.95-7.9-13.57-8.08-41.09-1.32-84.52-6.99-84.52-6.99-41.52-5.25-46.23-39.93-46.23-39.93l-18.99-105.15c-11.13-63.9,13.75-93.26,13.75-93.26-55.01,16.37-47.8,108.05-47.8,108.05l5.24,70.72c-25.48-22.88-34.44-54.85-37.05-67.04-1.14,0-.93,0-2.06,0l-11.96,52.62-11.96-52.62c-1.14,0-.93,0-2.06,0-2.61,12.19-11.57,44.16-37.05,67.04l5.24-70.72S217.36,16.98,162.36.61c0,0,24.88,29.36,13.75,93.26l-18.99,105.15s-4.71,34.69-46.23,39.93c0,0-43.43,5.67-84.52,6.99-5.62.18-10.73,3.22-13.57,8.08l103.03,27.33s50.45,7.97,81.23,86.91ZM204.27,212.78l47.8,22.26s-.65,11.13-12.44,12.44l16.37,53.7,16.37-53.7c-11.79-1.31-12.44-12.44-12.44-12.44l47.8-22.26c30.56,51.3,11.2,77.33-12.05,90.33-12.25,6.86-25.97,10.28-39.68,10.28-13.71,0-27.43-3.43-39.68-10.28-23.25-13.01-42.61-39.04-12.05-90.33Z"
        fill="currentColor" stroke-width="0" />
    <path d="M226.86,239.96c-21.94,13.59-8.68,47.15-8.68,47.15h-2.46c-22.76-29.96-1.96-53.86-1.96-53.86l13.1,6.71Z"
        fill="currentColor" stroke-width="0" />
    <path
        d="M179.87,370.03c5.56,17.32,18.39,55.65,25.41,76.58-78.07-20.18-136.97-84.98-151.28-165.77l64.82,17.13c12.08,30.09,33.66,55.37,61.05,72.06Z"
        fill="currentColor" stroke-width="0" />
    <path
        d="M245.2,59.79c0-16.45,10.8-34.62,10.8-34.62,0,0,10.8,18.17,10.8,34.62,0,12.93-10.8,50.59-10.8,50.59,0,0-10.8-37.65-10.8-50.59Z"
        fill="currentColor" stroke-width="0" />
    <path d="M296.27,287.1h-2.46s13.26-33.56-8.68-47.15l13.1-6.71s20.79,23.9-1.96,53.86Z" fill="currentColor"
        stroke-width="0" />
    <path
        d="M400.02,208.98h.03c-6.51-45.2-30.77-77.76-40.01-88.77.81-1,.66-.82,1.47-1.83,35.01,17.02,58.28,58.64,58.28,58.64-3.93-40.8-32.18-76.12-46.03-91.2.9-1.06.64-.75,1.53-1.81,49.82,30.85,82.57,82.33,85.78,147.95l-58.32-7.36c-.65-5.3-1.56-10.51-2.74-15.63Z"
        fill="currentColor" stroke-width="0" />
    <path
        d="M393.18,297.97l64.82-17.13c-14.32,80.79-73.21,145.59-151.28,165.77,7.02-20.92,19.85-59.26,25.41-76.58,27.39-16.69,48.97-41.98,61.05-72.06Z"
        fill="currentColor" stroke-width="0" />
</svg>