<?xml version="1.0" encoding="UTF-8"?>
<svg id="b" xmlns="http://www.w3.org/2000/svg" viewBox="0 0 512 512">
    <path
        d="M367.93,154.33s41.91,34.74,62.09,85.39c30.73,77.12,5.32,152.87-18.53,184.08,0,0,93.25-62.66,50.86-176.64-23.18-62.33-94.43-92.83-94.43-92.83Z"
        fill="currentColor" stroke-width="0" />
    <polygon
        points="242.91 160.97 258.22 177.81 228.52 222.21 218.41 226.54 140.83 166.07 145.5 128.76 240.56 50.9 347.53 131.36 350.46 187.45 348.04 199.24 230.15 331.43 259.75 370.07 246.42 496.44 230.58 502.74 214.68 376.16 173.5 328.87 298.54 173.72 240.42 122.35 201.06 158.92 218.41 177.81 242.91 160.97"
        fill="currentColor" stroke-width="0" />
    <path d="M182.63,9.26c-11.42,17.78-9.63,46.59,12.61,61.56l24.36-19.93c-34.26-11.01-36.97-41.63-36.97-41.63Z"
        fill="currentColor" stroke-width="0" />
    <path
        d="M124.48,288.55c0-22.67,7.95-43.53,21.27-60.17h0s-61.79,29.07-59.37,120.18c0,0-32.69-81.11,33.19-175.86-43.55,27.22-80.98,91-80.98,139.52,0,67.57,45.73,126.43,110.47,153.79,2.44,1.72,3.93,2.7,3.93,2.7l-77.57,10.21,140.9,16.49-13.98-111.23c-44.66-10.39-77.86-49.25-77.86-95.63Z"
        fill="currentColor" stroke-width="0" />
    <path
        d="M374.58,421.69h-.02c27.38-29.35,43.89-67.13,43.89-108.38,0-26.93-7.35-52.44-21.74-74.61-6.17-9.5-18.65-29.46-28.8-44.13l-2.39,11.64-20.53,23.02c44.53,85.98-3.95,129.59-3.95,129.59,8.99-53.43-10.21-89.8-19.32-103.49l-.26.29c4.74,12.6,6.71,23.95,6.47,32.93-1,37.7-22.56,70.44-54.43,86.95l-12.62,119.71,139.23-16.29-77.57-10.21s31.98-20.85,52.06-47.02Z"
        fill="currentColor" stroke-width="0" />

</svg>